<svg xmlns="http://www.w3.org/2000/svg" viewBox="0 0 287.63 380.63"><title>footer-arrow</title><g id="Layer_2" data-name="Layer 2"><g id="Layer_1-2" data-name="Layer 1"><path d="M147.76,0c-1.16,43.61-1.16,59.56-1.16,84.42V290.76c0,24.86,0,40.81,1.16,84.42h-8.1c1.16-43.61,1.16-59.56,1.16-84.42V84.42c0-24.86,0-40.81-1.16-84.42Z"/><path d="M6.27,231C22,248.56,28.13,254.65,37.63,264.15L116.48,343c9.49,9.5,15.59,15.59,33.15,31.36l-6.28,6.28C127.59,363.06,121.49,357,112,347.47L33.15,268.63C23.65,259.13,17.56,253,0,237.27Z"/><path d="M281.35,231c-15.76,17.56-21.86,23.65-31.35,33.15L171.15,343c-9.5,9.5-15.59,15.59-33.15,31.36l6.27,6.28C160,363.06,166.13,357,175.63,347.47l78.85-78.84c9.49-9.5,15.59-15.59,33.15-31.36Z"/></g></g></svg>