<svg xmlns="http://www.w3.org/2000/svg" viewBox="0 0 182.22 111.21"><defs><style>.cls-1{fill:#c94d1c;}</style></defs><title>script</title><g id="Layer_2" data-name="Layer 2"><g id="Layer_1-2" data-name="Layer 1"><path class="cls-1" d="M69.79,2.2a2.4,2.4,0,0,1,1.52-2,2.52,2.52,0,0,1,2.26.14,1.68,1.68,0,0,1,.94,1.71Q73.44,10,70.68,23.27T64,50.81a202.56,202.56,0,0,1-8.53,25q-6.27,14.13-13,15.45T31.59,78.73a168.89,168.89,0,0,1-4.43-28.16Q25.75,34,25.37,24.14q-2.79,10.13-9.5,32.6T4.16,93.39a2.24,2.24,0,0,1-1.62,1.45,2.22,2.22,0,0,1-1.93-.39,1.61,1.61,0,0,1-.55-1.74Q.87,90.06,3.38,82,7.82,67.68,14.11,46.78T24.65,9.34a2.22,2.22,0,0,1,1.52-1.6,2.47,2.47,0,0,1,2,.22,2.12,2.12,0,0,1,1.06,1.57q.33,5.36.67,12.15.74,15.15,2.25,31.61t4.89,26.93q2.8,7.77,5.81,6.49t7-9.86A169.11,169.11,0,0,0,59,51.17q4.2-15.08,7-28.74T69.79,2.2Z"/><path class="cls-1" d="M85.27,66.53c-1.64,1.8-3.61,3.79-5.89,6a47.22,47.22,0,0,1-5,4,10.71,10.71,0,0,1-5.07,2c-1.6.14-2.63-.76-3.08-2.72q-.54-3.91,3-9.7a32.72,32.72,0,0,1,8.18-9.26,16.44,16.44,0,0,1,6.82-3q3.78-.72,5.42,1.55a2.15,2.15,0,0,1,1.4-.29,2,2,0,0,1,1.67.67,1.58,1.58,0,0,1,.36,1.45c-.36,1.32-.77,2.67-1.26,4q-.91,2.46-1.59,5a12.52,12.52,0,0,0-.38,4.87c.22,2.54,1.51,3.66,3.85,3.37a30.47,30.47,0,0,0,8.54-3.3q5.31-2.78,19.29-13.09A2.13,2.13,0,0,1,123.8,58a2,2,0,0,1,1.06,1.64,2.49,2.49,0,0,1-1.31,2,134.5,134.5,0,0,1-18.85,12.8q-8.64,4.7-13.79,4.32A6.09,6.09,0,0,1,86.4,76.1a9.85,9.85,0,0,1-1.47-5A19.87,19.87,0,0,1,85.27,66.53Zm-13.89,7a51.88,51.88,0,0,0,6.36-5.09,93.52,93.52,0,0,0,8.92-9.62,3.29,3.29,0,0,0-1.15-.72,3.82,3.82,0,0,0-2.56.12,14.08,14.08,0,0,0-4.63,3.16,27.23,27.23,0,0,0-4.84,6.14A22.1,22.1,0,0,0,71.09,73a5.43,5.43,0,0,0-.17.87A4.68,4.68,0,0,0,71.38,73.57Z"/><path class="cls-1" d="M163.05,29h.1a2.26,2.26,0,0,1,1.95,1.23,2.45,2.45,0,0,1,0,2.05,2.07,2.07,0,0,1-2.1,1q-14.85-.91-29.95-.62-5.6,20.06-11.71,44.05T113,109.59a2.1,2.1,0,0,1-1.71,1.57,2.65,2.65,0,0,1-2.22-.56,1.89,1.89,0,0,1-.7-2Q111,98,117,74.85t11.19-42.08q-12.06.39-17.41.87c-2,.16-3.51.26-4.63.29a7.94,7.94,0,0,1-2.7-.29,3.12,3.12,0,0,1-1.64-1.25c-.74-.94-.81-1.73-.19-2.39a10.81,10.81,0,0,1,2.5-1.91,11.3,11.3,0,0,0,1.11-.67,2.12,2.12,0,0,1,3.18,1.25c.13.58.21.86.25.82q9.11-.76,20.73-1.06,1.78-6.21,2.89-9.88c.74-2.45,1.36-4.32,1.84-5.62a32.07,32.07,0,0,1,1.49-3.45,2.17,2.17,0,0,1,1.83-1.13,2.85,2.85,0,0,1,2.1.67,2.6,2.6,0,0,1,.94,2,4.8,4.8,0,0,1-.46,1.74A8.37,8.37,0,0,1,139,14.4a3.84,3.84,0,0,1-.77.87q-1.87,5.64-4,13.07Q148.24,28.15,163.05,29Z"/><path class="cls-1" d="M178.48,57.61a2.15,2.15,0,0,1,2.27-.53,2.18,2.18,0,0,1,1.4,1.39,2,2,0,0,1-.54,1.93,79.54,79.54,0,0,1-11.4,9.48,66.2,66.2,0,0,1-14.54,7.81q-7.51,2.86-13.36,1-5.84-2.5-6.27-8.44t4.59-11.52a16.76,16.76,0,0,1,4.58-3.43A7.48,7.48,0,0,1,150,54.4c1.5.27,2.39,1.36,2.68,3.26.13,2-1,3.85-3.37,5.68a11.67,11.67,0,0,1-8,2.51c-1,2.61-.88,4.84.27,6.71s3.35,2.73,6.63,2.6a28.13,28.13,0,0,0,10.36-3.23,73.2,73.2,0,0,0,10.81-6.78Q174.58,61.22,178.48,57.61Zm-29.9.43a9.85,9.85,0,0,0-2.79,1.69A24.29,24.29,0,0,0,143,62.14,15.76,15.76,0,0,0,145.3,61a10.49,10.49,0,0,0,2.9-2.22C148.32,58.54,148.45,58.3,148.58,58Z"/></g></g></svg>